<svg width="24" height="24" viewBox="0 0 24 24" fill="none" xmlns="http://www.w3.org/2000/svg">
<path d="M20.25 14.25C20.25 14.4489 20.171 14.6397 20.0303 14.7803C19.8897 14.921 19.6989 15 19.5 15H12.75V19.9397L14.4694 18.2194C14.6101 18.0786 14.801 17.9996 15 17.9996C15.199 17.9996 15.3899 18.0786 15.5306 18.2194C15.6714 18.3601 15.7504 18.551 15.7504 18.75C15.7504 18.949 15.6714 19.1399 15.5306 19.2806L12.5306 22.2806C12.461 22.3504 12.3783 22.4057 12.2872 22.4434C12.1962 22.4812 12.0986 22.5006 12 22.5006C11.9014 22.5006 11.8038 22.4812 11.7128 22.4434C11.6217 22.4057 11.539 22.3504 11.4694 22.2806L8.46937 19.2806C8.32864 19.1399 8.24958 18.949 8.24958 18.75C8.24958 18.551 8.32864 18.3601 8.46937 18.2194C8.61011 18.0786 8.80098 17.9996 9 17.9996C9.19902 17.9996 9.38989 18.0786 9.53063 18.2194L11.25 19.9397V15H4.5C4.30109 15 4.11032 14.921 3.96967 14.7803C3.82902 14.6397 3.75 14.4489 3.75 14.25C3.75 14.0511 3.82902 13.8603 3.96967 13.7197C4.11032 13.579 4.30109 13.5 4.5 13.5H19.5C19.6989 13.5 19.8897 13.579 20.0303 13.7197C20.171 13.8603 20.25 14.0511 20.25 14.25ZM4.5 10.5H19.5C19.6989 10.5 19.8897 10.421 20.0303 10.2803C20.171 10.1397 20.25 9.94891 20.25 9.75C20.25 9.55108 20.171 9.36032 20.0303 9.21967C19.8897 9.07901 19.6989 9 19.5 9H12.75V4.06031L14.4694 5.78062C14.6101 5.92135 14.801 6.00041 15 6.00041C15.199 6.00041 15.3899 5.92135 15.5306 5.78062C15.6714 5.63989 15.7504 5.44902 15.7504 5.24999C15.7504 5.05097 15.6714 4.8601 15.5306 4.71937L12.5306 1.71937C12.461 1.64964 12.3783 1.59432 12.2872 1.55658C12.1962 1.51883 12.0986 1.4994 12 1.4994C11.9014 1.4994 11.8038 1.51883 11.7128 1.55658C11.6217 1.59432 11.539 1.64964 11.4694 1.71937L8.46937 4.71937C8.32864 4.8601 8.24958 5.05097 8.24958 5.24999C8.24958 5.44902 8.32864 5.63989 8.46937 5.78062C8.61011 5.92135 8.80098 6.00041 9 6.00041C9.19902 6.00041 9.38989 5.92135 9.53063 5.78062L11.25 4.06031V9H4.5C4.30109 9 4.11032 9.07901 3.96967 9.21967C3.82902 9.36032 3.75 9.55108 3.75 9.75C3.75 9.94891 3.82902 10.1397 3.96967 10.2803C4.11032 10.421 4.30109 10.5 4.5 10.5Z" fill="#8687A8"/>
</svg>
