<svg width="24" height="24" viewBox="0 0 24 24" fill="none" xmlns="http://www.w3.org/2000/svg">
<path d="M15.375 7.5C15.8942 7.5 16.4017 7.34605 16.8334 7.05761C17.2651 6.76917 17.6015 6.3592 17.8002 5.87955C17.9989 5.39989 18.0508 4.87209 17.9496 4.36289C17.8483 3.85369 17.5983 3.38596 17.2312 3.01885C16.864 2.65173 16.3963 2.40173 15.8871 2.30044C15.3779 2.19915 14.8501 2.25114 14.3705 2.44982C13.8908 2.6485 13.4808 2.98495 13.1924 3.41663C12.904 3.84831 12.75 4.35583 12.75 4.875C12.75 5.57119 13.0266 6.23887 13.5188 6.73116C14.0111 7.22344 14.6788 7.5 15.375 7.5ZM15.375 3.75C15.5975 3.75 15.815 3.81598 16 3.9396C16.185 4.06321 16.3292 4.23892 16.4144 4.44448C16.4995 4.65005 16.5218 4.87625 16.4784 5.09448C16.435 5.31271 16.3278 5.51316 16.1705 5.6705C16.0132 5.82783 15.8127 5.93498 15.5945 5.97838C15.3762 6.02179 15.1501 5.99951 14.9445 5.91437C14.7389 5.82922 14.5632 5.68502 14.4396 5.50002C14.316 5.31501 14.25 5.09751 14.25 4.875C14.25 4.57663 14.3685 4.29048 14.5795 4.07951C14.7905 3.86853 15.0766 3.75 15.375 3.75ZM18.75 12.75C18.0083 12.75 17.2833 12.9699 16.6666 13.382C16.0499 13.794 15.5693 14.3797 15.2855 15.0649C15.0016 15.7502 14.9274 16.5042 15.0721 17.2316C15.2168 17.959 15.5739 18.6272 16.0984 19.1517C16.6228 19.6761 17.291 20.0333 18.0184 20.1779C18.7458 20.3226 19.4998 20.2484 20.1851 19.9646C20.8703 19.6807 21.456 19.2001 21.868 18.5834C22.2801 17.9667 22.5 17.2417 22.5 16.5C22.5 15.5054 22.1049 14.5516 21.4017 13.8484C20.6984 13.1451 19.7446 12.75 18.75 12.75ZM18.75 18.75C18.305 18.75 17.87 18.618 17.5 18.3708C17.13 18.1236 16.8416 17.7722 16.6713 17.361C16.501 16.9499 16.4564 16.4975 16.5432 16.061C16.6301 15.6246 16.8443 15.2237 17.159 14.909C17.4737 14.5943 17.8746 14.3801 18.311 14.2932C18.7475 14.2064 19.1999 14.251 19.611 14.4213C20.0222 14.5916 20.3736 14.88 20.6208 15.25C20.868 15.62 21 16.055 21 16.5C21 17.0967 20.7629 17.669 20.341 18.091C19.919 18.513 19.3467 18.75 18.75 18.75ZM5.25 12.75C4.50832 12.75 3.7833 12.9699 3.16661 13.382C2.54993 13.794 2.06928 14.3797 1.78545 15.0649C1.50162 15.7502 1.42736 16.5042 1.57206 17.2316C1.71675 17.959 2.0739 18.6272 2.59835 19.1517C3.1228 19.6761 3.79098 20.0333 4.51841 20.1779C5.24584 20.3226 5.99984 20.2484 6.68506 19.9646C7.37029 19.6807 7.95596 19.2001 8.36801 18.5834C8.78007 17.9667 9 17.2417 9 16.5C9 16.0075 8.90301 15.5199 8.71455 15.0649C8.52609 14.61 8.24987 14.1966 7.90165 13.8484C7.55343 13.5001 7.14004 13.2239 6.68506 13.0355C6.23009 12.847 5.74246 12.75 5.25 12.75ZM5.25 18.75C4.80499 18.75 4.36998 18.618 3.99997 18.3708C3.62996 18.1236 3.34157 17.7722 3.17127 17.361C3.00098 16.9499 2.95642 16.4975 3.04323 16.061C3.13005 15.6246 3.34434 15.2237 3.65901 14.909C3.97368 14.5943 4.37459 14.3801 4.81105 14.2932C5.24751 14.2064 5.69991 14.251 6.11104 14.4213C6.52217 14.5916 6.87358 14.88 7.12081 15.25C7.36804 15.62 7.5 16.055 7.5 16.5C7.5 17.0967 7.26295 17.669 6.84099 18.091C6.41904 18.513 5.84674 18.75 5.25 18.75ZM18 11.25H14.25C14.1515 11.2501 14.0539 11.2307 13.9629 11.1931C13.8718 11.1555 13.7891 11.1003 13.7194 11.0306L11.25 8.56031L9.31031 10.5L12.5306 13.7194C12.6003 13.7891 12.6555 13.8718 12.6931 13.9629C12.7307 14.0539 12.7501 14.1515 12.75 14.25V18.75C12.75 18.9489 12.671 19.1397 12.5303 19.2803C12.3897 19.421 12.1989 19.5 12 19.5C11.8011 19.5 11.6103 19.421 11.4697 19.2803C11.329 19.1397 11.25 18.9489 11.25 18.75V14.5603L7.71938 11.0306C7.64964 10.961 7.59433 10.8783 7.55658 10.7872C7.51884 10.6962 7.49941 10.5986 7.49941 10.5C7.49941 10.4014 7.51884 10.3038 7.55658 10.2128C7.59433 10.1217 7.64964 10.039 7.71938 9.96938L10.7194 6.96938C10.789 6.89964 10.8717 6.84433 10.9628 6.80658C11.0538 6.76884 11.1514 6.74941 11.25 6.74941C11.3486 6.74941 11.4462 6.76884 11.5372 6.80658C11.6283 6.84433 11.711 6.89964 11.7806 6.96938L14.5603 9.75H18C18.1989 9.75 18.3897 9.82902 18.5303 9.96967C18.671 10.1103 18.75 10.3011 18.75 10.5C18.75 10.6989 18.671 10.8897 18.5303 11.0303C18.3897 11.171 18.1989 11.25 18 11.25Z" fill="#8687A8"/>
</svg>
