<svg width="24" height="24" viewBox="0 0 24 24" fill="none" xmlns="http://www.w3.org/2000/svg">
<g clipPath="url(#clip0_102_406)">
<path d="M23.25 11.25H22.5V8.25C22.5 7.85218 22.342 7.47064 22.0607 7.18934C21.7794 6.90804 21.3978 6.75 21 6.75H19.5V6C19.5 5.60218 19.342 5.22064 19.0607 4.93934C18.7794 4.65804 18.3978 4.5 18 4.5H15.75C15.3522 4.5 14.9706 4.65804 14.6893 4.93934C14.408 5.22064 14.25 5.60218 14.25 6V11.25H9.75V6C9.75 5.60218 9.59196 5.22064 9.31066 4.93934C9.02936 4.65804 8.64782 4.5 8.25 4.5H6C5.60218 4.5 5.22064 4.65804 4.93934 4.93934C4.65804 5.22064 4.5 5.60218 4.5 6V6.75H3C2.60218 6.75 2.22064 6.90804 1.93934 7.18934C1.65804 7.47064 1.5 7.85218 1.5 8.25V11.25H0.75C0.551088 11.25 0.360322 11.329 0.21967 11.4697C0.0790176 11.6103 0 11.8011 0 12C0 12.1989 0.0790176 12.3897 0.21967 12.5303C0.360322 12.671 0.551088 12.75 0.75 12.75H1.5V15.75C1.5 16.1478 1.65804 16.5294 1.93934 16.8107C2.22064 17.092 2.60218 17.25 3 17.25H4.5V18C4.5 18.3978 4.65804 18.7794 4.93934 19.0607C5.22064 19.342 5.60218 19.5 6 19.5H8.25C8.64782 19.5 9.02936 19.342 9.31066 19.0607C9.59196 18.7794 9.75 18.3978 9.75 18V12.75H14.25V18C14.25 18.3978 14.408 18.7794 14.6893 19.0607C14.9706 19.342 15.3522 19.5 15.75 19.5H18C18.3978 19.5 18.7794 19.342 19.0607 19.0607C19.342 18.7794 19.5 18.3978 19.5 18V17.25H21C21.3978 17.25 21.7794 17.092 22.0607 16.8107C22.342 16.5294 22.5 16.1478 22.5 15.75V12.75H23.25C23.4489 12.75 23.6397 12.671 23.7803 12.5303C23.921 12.3897 24 12.1989 24 12C24 11.8011 23.921 11.6103 23.7803 11.4697C23.6397 11.329 23.4489 11.25 23.25 11.25ZM3 15.75V8.25H4.5V15.75H3ZM8.25 18H6V6H8.25V18ZM18 18H15.75V6H18V16.4831C18 16.4888 18 16.4944 18 16.5C18 16.5056 18 16.5112 18 16.5169V18ZM21 15.75H19.5V8.25H21V15.75Z" fill="#8687A8"/>
</g>
<defs>
<clipPath id="clip0_102_406">
<rect width="24" height="24" fill="white"/>
</clipPath>
</defs>
</svg>
