<svg width="24" height="24" viewBox="0 0 24 24" fill="none" xmlns="http://www.w3.org/2000/svg">
<path d="M6.75001 8.25001V3.75001C6.75001 3.55109 6.82903 3.36033 6.96968 3.21968C7.11033 3.07903 7.3011 3.00001 7.50001 3.00001C7.69892 3.00001 7.88968 3.07903 8.03034 3.21968C8.17099 3.36033 8.25001 3.55109 8.25001 3.75001V8.25001C8.25001 8.44892 8.17099 8.63969 8.03034 8.78034C7.88968 8.92099 7.69892 9.00001 7.50001 9.00001C7.3011 9.00001 7.11033 8.92099 6.96968 8.78034C6.82903 8.63969 6.75001 8.44892 6.75001 8.25001ZM20.25 3.75001V21C20.25 21.1989 20.171 21.3897 20.0303 21.5303C19.8897 21.671 19.6989 21.75 19.5 21.75C19.3011 21.75 19.1103 21.671 18.9697 21.5303C18.829 21.3897 18.75 21.1989 18.75 21V16.5H14.25C14.0511 16.5 13.8603 16.421 13.7197 16.2803C13.579 16.1397 13.5 15.9489 13.5 15.75C13.5348 13.9535 13.7618 12.1658 14.1769 10.4175C15.0938 6.62157 16.8319 4.0772 19.2047 3.06094C19.3187 3.01209 19.4431 2.9923 19.5667 3.00333C19.6903 3.01436 19.8092 3.05588 19.9128 3.12417C20.0164 3.19245 20.1014 3.28537 20.1603 3.39459C20.2191 3.50382 20.2499 3.62594 20.25 3.75001ZM18.75 5.05313C15.7341 7.35657 15.1434 12.9675 15.0281 15H18.75V5.05313ZM11.2397 3.62719C11.225 3.52871 11.1909 3.43415 11.1392 3.349C11.0876 3.26386 11.0196 3.18985 10.939 3.13128C10.8585 3.07272 10.7671 3.03078 10.6702 3.0079C10.5733 2.98503 10.4728 2.98167 10.3746 2.99804C10.2764 3.01441 10.1824 3.05017 10.0982 3.10324C10.0139 3.15631 9.94108 3.22562 9.8839 3.30714C9.82672 3.38865 9.78634 3.48074 9.76513 3.57802C9.74391 3.6753 9.74228 3.77584 9.76032 3.87376L10.5 8.30907C10.5 9.10472 10.1839 9.86778 9.62133 10.4304C9.05872 10.993 8.29566 11.3091 7.50001 11.3091C6.70436 11.3091 5.9413 10.993 5.37869 10.4304C4.81608 9.86778 4.50001 9.10472 4.50001 8.30907L5.23876 3.87376C5.2568 3.77584 5.25517 3.6753 5.23395 3.57802C5.21273 3.48074 5.17236 3.38865 5.11518 3.30714C5.058 3.22562 4.98516 3.15631 4.90091 3.10324C4.81666 3.05017 4.72269 3.01441 4.62448 2.99804C4.52626 2.98167 4.42577 2.98503 4.32886 3.0079C4.23196 3.03078 4.14058 3.07272 4.06005 3.13128C3.97952 3.18985 3.91147 3.26386 3.85984 3.349C3.80822 3.43415 3.77407 3.52871 3.75938 3.62719L3.00938 8.1272C3.00297 8.16782 2.99983 8.20889 3.00001 8.25001C3.00151 9.31295 3.37868 10.3412 4.06488 11.1529C4.75109 11.9647 5.70215 12.5078 6.75001 12.6863V21C6.75001 21.1989 6.82903 21.3897 6.96968 21.5303C7.11033 21.671 7.3011 21.75 7.50001 21.75C7.69892 21.75 7.88968 21.671 8.03034 21.5303C8.17099 21.3897 8.25001 21.1989 8.25001 21V12.6863C9.29787 12.5078 10.2489 11.9647 10.9351 11.1529C11.6213 10.3412 11.9985 9.31295 12 8.25001C11.9999 8.20886 11.9964 8.16779 11.9897 8.1272L11.2397 3.62719Z" fill="#8687A8"/>
</svg>
