<svg width="10" height="10" viewBox="0 0 10 10" fill="none" xmlns="http://www.w3.org/2000/svg">
<path d="M9.2008 5.86755C8.94844 6.69137 8.44268 7.41461 7.75549 7.93435C7.15216 8.38843 6.4342 8.66538 5.68222 8.7341C4.93023 8.80282 4.17398 8.66059 3.49833 8.32337C2.82269 7.98616 2.2544 7.46731 1.85726 6.82506C1.46012 6.18282 1.24984 5.44259 1.25002 4.68747C1.2473 3.80609 1.53383 2.94815 2.06564 2.24528C2.58539 1.55809 3.30862 1.05233 4.13244 0.799971C4.18674 0.783252 4.24456 0.781651 4.2997 0.79534C4.35484 0.809029 4.4052 0.83749 4.44537 0.877662C4.48555 0.917834 4.51401 0.968197 4.5277 1.02334C4.54139 1.07847 4.53978 1.1363 4.52307 1.1906C4.34293 1.78647 4.32782 2.42005 4.47936 3.02382C4.63091 3.6276 4.94342 4.17895 5.38359 4.61913C5.82377 5.05931 6.37512 5.37182 6.9789 5.52336C7.58268 5.6749 8.21626 5.6598 8.81213 5.47966C8.86642 5.46294 8.92425 5.46134 8.97939 5.47503C9.03453 5.48872 9.08489 5.51718 9.12506 5.55735C9.16523 5.59752 9.1937 5.64789 9.20738 5.70302C9.22107 5.75816 9.21947 5.81599 9.20275 5.87028L9.2008 5.86755Z" fill="#EBEAEC"/>
</svg>
