<svg width="12" height="12" viewBox="0 0 12 12" fill="none" xmlns="http://www.w3.org/2000/svg">
<g clip-path="url(#clip0_142_12)">
<path d="M5.625 1.875V0.75C5.625 0.650544 5.66451 0.555161 5.73484 0.484835C5.80516 0.414509 5.90054 0.375 6 0.375C6.09946 0.375 6.19484 0.414509 6.26517 0.484835C6.33549 0.555161 6.375 0.650544 6.375 0.75V1.875C6.375 1.97446 6.33549 2.06984 6.26517 2.14016C6.19484 2.21049 6.09946 2.25 6 2.25C5.90054 2.25 5.80516 2.21049 5.73484 2.14016C5.66451 2.06984 5.625 1.97446 5.625 1.875ZM6 3C5.40666 3 4.82664 3.17595 4.33329 3.50559C3.83994 3.83524 3.45542 4.30377 3.22836 4.85195C3.0013 5.40013 2.94189 6.00333 3.05764 6.58527C3.1734 7.16721 3.45912 7.70176 3.87868 8.12132C4.29824 8.54088 4.83279 8.8266 5.41473 8.94236C5.99667 9.05811 6.59987 8.9987 7.14805 8.77164C7.69623 8.54458 8.16476 8.16006 8.49441 7.66671C8.82405 7.17336 9 6.59334 9 6C8.99913 5.20462 8.68278 4.44206 8.12036 3.87964C7.55794 3.31722 6.79538 3.00087 6 3ZM2.73469 3.26531C2.80505 3.33568 2.90049 3.37521 3 3.37521C3.09951 3.37521 3.19495 3.33568 3.26531 3.26531C3.33568 3.19495 3.37521 3.09951 3.37521 3C3.37521 2.90049 3.33568 2.80505 3.26531 2.73469L2.51531 1.98469C2.44495 1.91432 2.34951 1.87479 2.25 1.87479C2.15049 1.87479 2.05505 1.91432 1.98469 1.98469C1.91432 2.05505 1.87479 2.15049 1.87479 2.25C1.87479 2.34951 1.91432 2.44495 1.98469 2.51531L2.73469 3.26531ZM2.73469 8.73469L1.98469 9.48469C1.91432 9.55505 1.87479 9.65049 1.87479 9.75C1.87479 9.84951 1.91432 9.94495 1.98469 10.0153C2.05505 10.0857 2.15049 10.1252 2.25 10.1252C2.34951 10.1252 2.44495 10.0857 2.51531 10.0153L3.26531 9.26531C3.30015 9.23047 3.32779 9.18911 3.34665 9.14359C3.3655 9.09806 3.37521 9.04927 3.37521 9C3.37521 8.95073 3.3655 8.90194 3.34665 8.85641C3.32779 8.81089 3.30015 8.76953 3.26531 8.73469C3.23047 8.69985 3.18911 8.67221 3.14359 8.65335C3.09806 8.6345 3.04927 8.62479 3 8.62479C2.95073 8.62479 2.90194 8.6345 2.85641 8.65335C2.81089 8.67221 2.76953 8.69985 2.73469 8.73469ZM9 3.375C9.04926 3.37504 9.09805 3.36537 9.14357 3.34655C9.18909 3.32773 9.23046 3.30013 9.26531 3.26531L10.0153 2.51531C10.0857 2.44495 10.1252 2.34951 10.1252 2.25C10.1252 2.15049 10.0857 2.05505 10.0153 1.98469C9.94495 1.91432 9.84951 1.87479 9.75 1.87479C9.65049 1.87479 9.55505 1.91432 9.48469 1.98469L8.73469 2.73469C8.68218 2.78713 8.64642 2.85398 8.63193 2.92676C8.61743 2.99954 8.62486 3.07499 8.65327 3.14355C8.68167 3.21211 8.72978 3.27069 8.79151 3.3119C8.85323 3.3531 8.92579 3.37506 9 3.375ZM9.26531 8.73469C9.19495 8.66432 9.09951 8.62479 9 8.62479C8.90049 8.62479 8.80505 8.66432 8.73469 8.73469C8.66432 8.80505 8.62479 8.90049 8.62479 9C8.62479 9.09951 8.66432 9.19495 8.73469 9.26531L9.48469 10.0153C9.51953 10.0502 9.56089 10.0778 9.60641 10.0966C9.65194 10.1155 9.70073 10.1252 9.75 10.1252C9.79927 10.1252 9.84806 10.1155 9.89359 10.0966C9.93911 10.0778 9.98047 10.0502 10.0153 10.0153C10.0502 9.98047 10.0778 9.93911 10.0966 9.89359C10.1155 9.84806 10.1252 9.79927 10.1252 9.75C10.1252 9.70073 10.1155 9.65194 10.0966 9.60641C10.0778 9.56089 10.0502 9.51953 10.0153 9.48469L9.26531 8.73469ZM2.25 6C2.25 5.90054 2.21049 5.80516 2.14016 5.73484C2.06984 5.66451 1.97446 5.625 1.875 5.625H0.75C0.650544 5.625 0.555161 5.66451 0.484835 5.73484C0.414509 5.80516 0.375 5.90054 0.375 6C0.375 6.09946 0.414509 6.19484 0.484835 6.26517C0.555161 6.33549 0.650544 6.375 0.75 6.375H1.875C1.97446 6.375 2.06984 6.33549 2.14016 6.26517C2.21049 6.19484 2.25 6.09946 2.25 6ZM6 9.75C5.90054 9.75 5.80516 9.78951 5.73484 9.85983C5.66451 9.93016 5.625 10.0255 5.625 10.125V11.25C5.625 11.3495 5.66451 11.4448 5.73484 11.5152C5.80516 11.5855 5.90054 11.625 6 11.625C6.09946 11.625 6.19484 11.5855 6.26517 11.5152C6.33549 11.4448 6.375 11.3495 6.375 11.25V10.125C6.375 10.0255 6.33549 9.93016 6.26517 9.85983C6.19484 9.78951 6.09946 9.75 6 9.75ZM11.25 5.625H10.125C10.0255 5.625 9.93016 5.66451 9.85983 5.73484C9.78951 5.80516 9.75 5.90054 9.75 6C9.75 6.09946 9.78951 6.19484 9.85983 6.26517C9.93016 6.33549 10.0255 6.375 10.125 6.375H11.25C11.3495 6.375 11.4448 6.33549 11.5152 6.26517C11.5855 6.19484 11.625 6.09946 11.625 6C11.625 5.90054 11.5855 5.80516 11.5152 5.73484C11.4448 5.66451 11.3495 5.625 11.25 5.625Z" fill="#2B2A2C"/>
</g>
<defs>
<clipPath id="clip0_142_12">
<rect width="12" height="12" fill="white"/>
</clipPath>
</defs>
</svg>
