<svg width="19" height="19" viewBox="0 0 19 19" fill="none" xmlns="http://www.w3.org/2000/svg">
<path d="M16.5868 5.03735H14.5695L16.4222 3.18532C16.4745 3.13306 16.5159 3.07102 16.5442 3.00273C16.5725 2.93445 16.5871 2.86126 16.5871 2.78735C16.5871 2.71344 16.5725 2.64026 16.5442 2.57197C16.5159 2.50369 16.4745 2.44165 16.4222 2.38938C16.37 2.33712 16.3079 2.29567 16.2396 2.26738C16.1714 2.2391 16.0982 2.22454 16.0243 2.22454C15.9503 2.22454 15.8772 2.2391 15.8089 2.26738C15.7406 2.29567 15.6785 2.33712 15.6263 2.38938L13.7743 4.24212V2.22485C13.7743 2.07567 13.715 1.9326 13.6095 1.82711C13.504 1.72162 13.3609 1.66235 13.2118 1.66235C13.0626 1.66235 12.9195 1.72162 12.814 1.82711C12.7085 1.9326 12.6493 2.07567 12.6493 2.22485V4.51493C11.7921 4.02013 10.7958 3.82169 9.81454 3.95032C8.83326 4.07896 7.92175 4.52749 7.22113 5.22649C4.4016 7.9961 2.28168 14.5837 2.07496 15.2425C1.97749 15.4517 1.94673 15.6859 1.98685 15.9131C2.02697 16.1404 2.13603 16.3499 2.29923 16.5131C2.46243 16.6763 2.67188 16.7853 2.89917 16.8255C3.12646 16.8656 3.36059 16.8348 3.5698 16.7374C4.22863 16.5306 10.8246 14.4079 13.5872 11.5898C14.2857 10.889 14.7338 9.97745 14.862 8.99633C14.9903 8.01521 14.7916 7.01917 14.2967 6.16235H16.5868C16.7359 6.16235 16.879 6.10309 16.9845 5.9976C17.09 5.89211 17.1493 5.74904 17.1493 5.59985C17.1493 5.45067 17.09 5.3076 16.9845 5.20211C16.879 5.09662 16.7359 5.03735 16.5868 5.03735ZM12.7814 10.803C12.1528 11.4442 11.2873 12.0545 10.3311 12.6121L8.54652 10.8269C8.49426 10.7746 8.43221 10.7332 8.36393 10.7049C8.29565 10.6766 8.22246 10.662 8.14855 10.662C8.07464 10.662 8.00146 10.6766 7.93317 10.7049C7.86489 10.7332 7.80285 10.7746 7.75058 10.8269C7.69832 10.8791 7.65686 10.9412 7.62858 11.0095C7.6003 11.0778 7.58574 11.1509 7.58574 11.2249C7.58574 11.2988 7.6003 11.3719 7.62858 11.4402C7.65686 11.5085 7.69832 11.5706 7.75058 11.6228L9.30379 13.176C6.43011 14.6659 3.23441 15.6665 3.1866 15.6813C3.15197 15.6925 3.11853 15.7071 3.08676 15.7249C3.10374 15.6932 3.11764 15.66 3.12824 15.6257C3.14863 15.5603 5.09699 9.32712 7.62824 6.43798L10.0027 8.81243C10.1082 8.91798 10.2514 8.97728 10.4007 8.97728C10.5499 8.97728 10.6931 8.91798 10.7986 8.81243C10.9042 8.70688 10.9635 8.56373 10.9635 8.41446C10.9635 8.2652 10.9042 8.12204 10.7986 8.01649L8.44316 5.66173C9.13327 5.17072 9.98277 4.95713 10.823 5.06335C11.6633 5.16958 12.4329 5.58785 12.9792 6.23516C13.5254 6.88247 13.8082 7.71148 13.7716 8.55765C13.735 9.40382 13.3815 10.2053 12.7814 10.803Z" fill="black"/>
</svg>
