<svg width="18" height="18" viewBox="0 0 18 18" fill="none" xmlns="http://www.w3.org/2000/svg">
<path d="M15.4878 11.1474C15.4076 11.0968 15.3159 11.0673 15.2212 11.0617C15.1266 11.056 15.032 11.0744 14.9464 11.115C14.732 11.2164 14.4956 11.2619 14.2589 11.2474C14.0223 11.2329 13.7931 11.1587 13.5928 11.0319C13.3925 10.905 13.2275 10.7296 13.1132 10.5219C12.9989 10.3141 12.9389 10.0809 12.9389 9.84379C12.9389 9.60669 12.9989 9.37345 13.1132 9.16573C13.2275 8.95801 13.3925 8.78258 13.5928 8.65573C13.7931 8.52888 14.0223 8.45473 14.2589 8.44019C14.4956 8.42565 14.732 8.47118 14.9464 8.57254C15.0321 8.61324 15.1268 8.63157 15.2215 8.62584C15.3163 8.62011 15.408 8.59049 15.4883 8.53975C15.5685 8.48901 15.6345 8.41879 15.6803 8.33564C15.7261 8.25249 15.7501 8.1591 15.7501 8.06418V5.06254C15.7501 4.76417 15.6315 4.47803 15.4205 4.26705C15.2096 4.05607 14.9234 3.93754 14.6251 3.93754H12.0783C12.0888 3.84416 12.094 3.75026 12.0938 3.65629C12.0933 3.31058 12.0222 2.96862 11.8848 2.65136C11.7475 2.33411 11.5468 2.04824 11.2951 1.81129C10.9465 1.48393 10.5123 1.26199 10.0428 1.17118C9.57336 1.08038 9.08775 1.12441 8.64226 1.29819C8.19677 1.47198 7.80961 1.7684 7.52563 2.15312C7.24164 2.53785 7.07245 2.99516 7.03763 3.47207C7.02683 3.62721 7.03012 3.783 7.04747 3.93754H4.50005C4.20168 3.93754 3.91554 4.05607 3.70456 4.26705C3.49358 4.47803 3.37505 4.76417 3.37505 5.06254V7.32801C3.28167 7.31755 3.18777 7.31238 3.0938 7.31254C2.7481 7.3131 2.40615 7.38423 2.0889 7.52158C1.77165 7.65892 1.48578 7.85959 1.2488 8.11129C1.01013 8.36341 0.826343 8.6623 0.70907 8.98907C0.591797 9.31584 0.543582 9.66338 0.567475 10.0097C0.607784 10.6196 0.866919 11.1944 1.29723 11.6285C1.72754 12.0625 2.30008 12.3266 2.90958 12.3722C3.06471 12.3834 3.22054 12.3801 3.37505 12.3624V14.625C3.37505 14.9234 3.49358 15.2096 3.70456 15.4205C3.91554 15.6315 4.20168 15.75 4.50005 15.75H14.6251C14.9234 15.75 15.2096 15.6315 15.4205 15.4205C15.6315 15.2096 15.7501 14.9234 15.7501 14.625V11.6234C15.7501 11.5284 15.7261 11.4349 15.6802 11.3516C15.6344 11.2684 15.5682 11.1981 15.4878 11.1474ZM14.6251 14.625H4.50005V11.6234C4.50008 11.5285 4.4761 11.4351 4.43032 11.3519C4.38454 11.2688 4.31847 11.1986 4.23825 11.1478C4.15803 11.0971 4.06628 11.0675 3.97154 11.0617C3.87679 11.056 3.78213 11.0743 3.69638 11.115C3.48204 11.2164 3.24556 11.2619 3.00891 11.2474C2.77225 11.2329 2.54312 11.1587 2.34281 11.0319C2.1425 10.905 1.97751 10.7296 1.86319 10.5219C1.74886 10.3141 1.68891 10.0809 1.68891 9.84379C1.68891 9.60669 1.74886 9.37345 1.86319 9.16573C1.97751 8.95801 2.1425 8.78258 2.34281 8.65573C2.54312 8.52888 2.77225 8.45473 3.00891 8.44019C3.24556 8.42565 3.48204 8.47118 3.69638 8.57254C3.78213 8.61324 3.87679 8.63157 3.97154 8.62584C4.06628 8.62011 4.15803 8.59049 4.23825 8.53975C4.31847 8.48901 4.38454 8.41879 4.43032 8.33564C4.4761 8.25249 4.50008 8.1591 4.50005 8.06418V5.06254H7.78294C7.87786 5.06257 7.97125 5.03859 8.0544 4.99281C8.13755 4.94703 8.20777 4.88096 8.25851 4.80074C8.30925 4.72052 8.33887 4.62877 8.3446 4.53403C8.35033 4.43928 8.332 4.34462 8.2913 4.25887C8.18994 4.04453 8.14441 3.80805 8.15895 3.5714C8.17349 3.33474 8.24764 3.10561 8.37449 2.9053C8.50134 2.70499 8.67677 2.54 8.88449 2.42568C9.09221 2.31135 9.32546 2.2514 9.56255 2.2514C9.79965 2.2514 10.0329 2.31135 10.2406 2.42568C10.4483 2.54 10.6238 2.70499 10.7506 2.9053C10.8775 3.10561 10.9516 3.33474 10.9662 3.5714C10.9807 3.80805 10.9352 4.04453 10.8338 4.25887C10.7931 4.34462 10.7748 4.43928 10.7805 4.53403C10.7862 4.62877 10.8159 4.72052 10.8666 4.80074C10.9173 4.88096 10.9876 4.94703 11.0707 4.99281C11.1539 5.03859 11.2472 5.06257 11.3422 5.06254H14.6251V7.32872C14.4705 7.31101 14.3147 7.30772 14.1596 7.31887C13.5049 7.36523 12.8938 7.66405 12.4553 8.15231C12.0167 8.64057 11.7849 9.28009 11.8088 9.93596C11.8327 10.5918 12.1104 11.2128 12.5834 11.6678C13.0563 12.1229 13.6875 12.3765 14.3438 12.375C14.4378 12.3752 14.5317 12.37 14.6251 12.3596V14.625Z" fill="black"/>
</svg>
