<svg width="24" height="24" viewBox="0 0 24 24" fill="none" xmlns="http://www.w3.org/2000/svg">
<path d="M20.0306 9.53063L12.5306 17.0306C12.461 17.1004 12.3783 17.1557 12.2872 17.1934C12.1962 17.2312 12.0986 17.2506 12 17.2506C11.9014 17.2506 11.8038 17.2312 11.7128 17.1934C11.6217 17.1557 11.539 17.1004 11.4694 17.0306L3.96938 9.53063C3.82864 9.3899 3.74958 9.19902 3.74958 9C3.74958 8.80098 3.82864 8.61011 3.96938 8.46937C4.11011 8.32864 4.30098 8.24958 4.5 8.24958C4.69902 8.24958 4.88989 8.32864 5.03062 8.46937L12 15.4397L18.9694 8.46937C19.0391 8.39969 19.1218 8.34442 19.2128 8.3067C19.3039 8.26899 19.4015 8.24958 19.5 8.24958C19.5985 8.24958 19.6961 8.26899 19.7872 8.3067C19.8782 8.34442 19.9609 8.39969 20.0306 8.46937C20.1003 8.53906 20.1556 8.62178 20.1933 8.71283C20.231 8.80387 20.2504 8.90145 20.2504 9C20.2504 9.09855 20.231 9.19613 20.1933 9.28717C20.1556 9.37822 20.1003 9.46094 20.0306 9.53063Z" fill="#6265d8"/>
</svg>
