<svg width="111" height="25" viewBox="0 0 111 25" fill="none" xmlns="http://www.w3.org/2000/svg">
<path d="M7.928 21.696H15.352V18.976H17.528V24H0.408V22.112H3.032V3.2H0.408V1.28H3.032H8.024H10.584V3.2H7.928V21.696ZM24.176 12.64C24.176 14.944 24.528 16.864 25.232 18.4C25.936 19.936 26.832 21.0453 27.92 21.728C29.0293 22.3893 30.1493 22.72 31.28 22.72C32.4107 22.72 33.52 22.4 34.608 21.76C35.696 21.12 36.6027 20.0533 37.328 18.56C38.0747 17.0453 38.448 15.072 38.448 12.64C38.448 10.2507 38.096 8.30933 37.392 6.816C36.688 5.32267 35.7813 4.24533 34.672 3.584C33.584 2.90133 32.4533 2.56 31.28 2.56C29.424 2.56 27.7707 3.38133 26.32 5.024C24.8907 6.64533 24.176 9.184 24.176 12.64ZM18.576 12.64C18.576 10.656 19.0987 8.768 20.144 6.976C21.2107 5.16267 22.7253 3.70133 24.688 2.592C26.6507 1.48267 28.848 0.927999 31.28 0.927999C33.7333 0.927999 35.9307 1.48267 37.872 2.592C39.8133 3.68 41.3173 5.13067 42.384 6.944C43.472 8.75733 44.016 10.656 44.016 12.64C44.016 14.6453 43.472 16.5547 42.384 18.368C41.3173 20.1813 39.8133 21.6427 37.872 22.752C35.9307 23.84 33.7333 24.384 31.28 24.384C28.848 24.384 26.6507 23.8293 24.688 22.72C22.7253 21.6107 21.2107 20.16 20.144 18.368C19.0987 16.5547 18.576 14.6453 18.576 12.64ZM55.121 24H52.657H50.001V22.112H52.657V3.2H47.153V5.6H45.105V1.28H65.073V5.6H62.961V3.2H57.521V22.112H60.145V24H57.425H55.121ZM66.8745 1.28H77.0505V3.2H74.3625V15.04C74.3625 17.0027 74.7038 18.752 75.3865 20.288C76.0905 21.824 77.7865 22.5813 80.4745 22.56C84.4638 22.432 86.4585 19.9253 86.4585 15.04V3.2H83.7385V1.28H90.8745V3.2H88.1865V15.04C88.1865 17.4933 87.6638 19.6587 86.6185 21.536C85.5732 23.4133 83.1625 24.3627 79.3865 24.384C77.0398 24.384 75.1838 24.096 73.8185 23.52C72.4532 22.9227 71.4718 22.176 70.8745 21.28C70.2772 20.384 69.9038 19.4773 69.7545 18.56C69.6052 17.6213 69.5305 16.5653 69.5305 15.392V3.2H66.8745V1.28ZM107.068 1.28H108.86V7.072H106.78C106.716 5.728 106.15 4.608 105.084 3.712C104.038 2.79467 102.822 2.336 101.436 2.336C100.177 2.35733 99.1422 2.688 98.3315 3.328C97.5422 3.968 97.1475 4.72533 97.1475 5.6C97.1475 6.51733 97.3928 7.168 97.8835 7.552C98.3955 7.936 99.1742 8.352 100.22 8.8L105.436 10.944C108.486 12.3093 110.001 14.3787 109.98 17.152C109.937 19.1787 109.116 20.896 107.516 22.304C105.937 23.6907 103.836 24.384 101.212 24.384C99.1635 24.384 97.2968 23.7227 95.6115 22.4L95.0355 24H93.4035V18.048H95.3555C95.5262 19.4773 96.1448 20.672 97.2115 21.632C98.2995 22.592 99.5902 23.0613 101.084 23.04C102.385 22.9973 103.494 22.624 104.412 21.92C105.329 21.216 105.82 20.2987 105.884 19.168C105.905 18.4427 105.745 17.8453 105.404 17.376C105.062 16.9067 104.668 16.5547 104.22 16.32C103.793 16.0853 103.206 15.808 102.46 15.488L98.4595 13.824C96.6248 13.0133 95.3768 12 94.7155 10.784C94.0542 9.568 93.7235 8.384 93.7235 7.232C93.7448 6.08 94.0755 5.03467 94.7155 4.096C95.3768 3.136 96.2835 2.368 97.4355 1.792C98.5875 1.216 99.8462 0.927999 101.212 0.927999C103.11 0.927999 104.796 1.504 106.268 2.656L107.068 1.28Z" fill="#333333"/>
</svg>
